<?xml version="1.0" encoding="UTF-8"?>
<svg id="Laag_1" data-name="Laag 1" xmlns="http://www.w3.org/2000/svg" viewBox="0 0 735.87 420.94">
  <defs>
    <style>
      .cls-1 {
        fill: #f9c615;
      }
    </style>
  </defs>
  <path class="cls-1" d="m180.33,11.6s68.67,20,163.33-4.67c0,0,238.67-50.67,314,122,0,0-50.67-22.67-84,16,0,0-60.67-72.67-144.33-2,0,0-35.67,29-29.67,85.34,0,0,3,92,115.33,93.33,0,0,41-1,31-47,0,0-23.33-103.67,58-107,0,0,1.5-1.33-4.08-4.42,0,0-8.58-4.42-2.75-16.08,0,0,4.33-9,5.33-11.33,0,0,10.67,2.02,14.33-5.67,0,0,37.33,3.17,47.17,25.33,0,0,3.67,12.83,17.83,15.83,0,0,20.83,5.17,27.83,26,0,0,2.67,9.33,9.5,10,0,0,2.83,21-16.33,19,0,0,34.33,15.34,33,41,0,0-1.5,14.5-18.5,25.83,0,0,3.5-14.17,2-19,0,0-7.5,15.33-24.83-7.17,0,0-6.33-9.83-20.67-4.5,0,0-6.67,1.33-7.33,13.17,0,0-7.5,0-10.5-5.83,0,0-7.5,13.83,7.33,14.67,0,0,9.67,24.83-16.67,58.5,0,0-72,108.67-215,69.5,0,0-24.13-10.28-63.5-8.5,0,0-9.83-3-85.17,8.67,0,0-114.67,13.67-152.67-2,0,0,128.33,1.33,175.33-28,0,0,0-21.33,50.67-22.33,0,0-11.33-5-18-17,0,0-61,48.33-230.33-18.33,0,0,156.67,34,213.67-5,0,0-14.67-3-11.67-24.67,0,0-7,16.33-69-2.67,0,0-46.67-10.67-117.33,4.67,0,0,77.33-23,130-30,0,0-.67-3.67-22.33-6,0,0,47.67-16.33,59,2.33,0,0,17.33-21.33-31.67-25.33,0,0-79.33,32-120.67,12.67,0,0,57-3.34,69.67-14.01,0,0-157.67,25.67-207.67-35.33,0,0,61,22.33,88.67,12.33,0,0,31-18.67,116.33,3,0,0,13.33-10.33,91.33-.67,0,0-3.67-18-20.67-21.67,0,0-26.33,1-47.67-18.33,0,0-6,9-28.33,8.33,0,0-166,1-168.33-13.33,0,0,60.67,1.66,89.67-16.34,0,0,88-49.67,178.33,14.33,0,0,7.33-30.67,20-48.33,0,0-26.67,28-53.67-.67,0,0-85.33,19.33-157.67-13,0,0,57-.33,77.67-5,0,0,88.27-25,122.97-21.33,0,0,21.7,10.67,47.37.33,0,0-1.33-6.33,46-36.33,0,0-31.33-11.33-149.33-14,0,0-46.33,2.69-72.33-19.32Z"/>
</svg>